<svg height="900" width="1440" xmlns="http://www.w3.org/2000/svg" ><g stroke-width="1.51" ><path d="m642 540 176 62-34-255z" fill="#4bc0ae" stroke="#4bc0ae" /><path d="m784 347-112-21-30 214z" fill="#4bc0af" stroke="#4bc0af" /><path d="m818 602 177 24-211-279z" fill="#4cc4b3" stroke="#4cc4b3" /><path d="m533 803 323-80-38-121z" fill="#4ec8b6" stroke="#4ec8b6" /><path d="m856 723 139-97-177-24z" fill="#4fcab8" stroke="#4fcab8" /><path d="m784 347 41-169-153 148z" fill="#4ec6b4" stroke="#4ec6b4" /><path d="m996 265-171-87-41 169z" fill="#50cbb9" stroke="#50cbb9" /><path d="m995 626 1-361-212 82z" fill="#4ec5b3" stroke="#4ec5b3" /><path d="m642 540-109 263 285-201z" fill="#4ec7b5" stroke="#4ec7b5" /><path d="m401 399 36 199 205-58z" fill="#4ec8b7" stroke="#4ec8b7" /><path d="m672 326-271 73 241 141z" fill="#4dc4b3" stroke="#4dc4b3" /><path d="m825 178-259-2 106 150z" fill="#4fc9b7" stroke="#4fc9b7" /><path d="m566 176-165 223 271-73z" fill="#50cbb9" stroke="#50cbb9" /><path d="m996 265 8-96-179 9z" fill="#51d0be" stroke="#51d0be" /><path d="m618-50-273 173 221 53z" fill="#55d7c4" stroke="#55d7c4" /><path d="m1239 119-235 50-8 96z" fill="#54d5c3" stroke="#54d5c3" /><path d="m437 598 96 205 109-263z" fill="#50ccba" stroke="#50ccba" /><path d="m842 1061 138-243-124-95z" fill="#52d3c1" stroke="#52d3c1" /><path d="m856 723 124 95 15-192z" fill="#50cfbd" stroke="#50cfbd" /><path d="m437 598-83 119 179 86z" fill="#53d2bf" stroke="#53d2bf" /><path d="m203 603 151 114 83-119z" fill="#53d4c1" stroke="#53d4c1" /><path d="m1186 847 65-342-256 121z" fill="#52d3c1" stroke="#52d3c1" /><path d="m995 626 256-121-255-240z" fill="#4ec9b7" stroke="#4ec9b7" /><path d="m533 803 117 167 206-247z" fill="#50cebc" stroke="#50cebc" /><path d="m401 941 249 29-117-167z" fill="#53d5c2" stroke="#53d5c2" /><path d="m980 818 206 29-191-221z" fill="#53d4c2" stroke="#53d4c2" /><path d="m842 1061 207-134-69-109z" fill="#53d4c1" stroke="#53d4c1" /><path d="m401 399-198 204 234-5z" fill="#51cfbc" stroke="#51cfbc" /><path d="m345 123-111 247 167 29z" fill="#53d4c1" stroke="#53d4c1" /><path d="m566 176-221-53 56 276z" fill="#53d2c0" stroke="#53d2c0" /><path d="m618-50-52 226 259 2z" fill="#52d0be" stroke="#52d0be" /><path d="m899-145-281 95 207 228z" fill="#53d3c1" stroke="#53d3c1" /><path d="m1004 169-105-314-74 323z" fill="#54d6c3" stroke="#54d6c3" /><path d="m1251 505 37-201-292-39z" fill="#51d0be" stroke="#51d0be" /><path d="m1049 927 137-80-206-29z" fill="#54d9c6" stroke="#54d9c6" /><path d="m354 717 47 224 132-138z" fill="#55d7c4" stroke="#55d7c4" /><path d="m234 370-31 233 198-204z" fill="#51cfbd" stroke="#51cfbd" /><path d="m240 750 161 191-47-224z" fill="#56dac8" stroke="#56dac8" /><path d="m617 1168 225-107-192-91z" fill="#4ec7b6" stroke="#4ec7b6" /><path d="m650 970 192 91 14-338z" fill="#50cfbd" stroke="#50cfbd" /><path d="m1049 927 278 19-141-99z" fill="#55dcc9" stroke="#55dcc9" /><path d="m203 603 37 147 114-33z" fill="#55d8c6" stroke="#55d8c6" /><path d="m1288 304-49-185-243 146z" fill="#54d6c4" stroke="#54d6c4" /><path d="m1239 119-158-173-77 223z" fill="#56dcc9" stroke="#56dcc9" /><path d="m1081-54-182-91 105 314z" fill="#56dac7" stroke="#56dac7" /><path d="m234 370-222 146 191 87z" fill="#53d3c0" stroke="#53d3c0" /><path d="m345 123-179 76 68 171z" fill="#56dac7" stroke="#56dac7" /><path d="m121-25 45 224 179-76z" fill="#5ae3cf" stroke="#5ae3cf" /><path d="m618-50-279-1 6 174z" fill="#57ddca" stroke="#57ddca" /><path d="m389-255-50 204 279 1z" fill="#54d6c3" stroke="#54d6c3" /><path d="m1251 505 212 29-175-230z" fill="#4fccba" stroke="#4fccba" /><path d="m1288 304 185-249-234 64z" fill="#56dac7" stroke="#56dac7" /><path d="m1186 847 277-313-212-29z" fill="#52d4c2" stroke="#52d4c2" /><path d="m467 1146 150 22 33-198z" fill="#50cbb9" stroke="#50cbb9" /><path d="m401 941 66 205 183-176z" fill="#52d1bf" stroke="#52d1bf" /><path d="m144 1028 323 118-66-205z" fill="#54d7c4" stroke="#54d7c4" /><path d="m1186 847 296-2-19-311z" fill="#54d6c4" stroke="#54d6c4" /><path d="m1241 1258 86-312-278-19z" fill="#54d7c5" stroke="#54d7c5" /><path d="m988 1252 61-325-207 134z" fill="#51cebc" stroke="#51cebc" /><path d="m798-298-197 51 17 197z" fill="#4fc9b7" stroke="#4fc9b7" /><path d="m240 750-96 278 257-87z" fill="#58dfcc" stroke="#58dfcc" /><path d="m203 603-312 167 349-20z" fill="#56dac7" stroke="#56dac7" /><path d="m-29 361 41 155 222-146z" fill="#51cfbd" stroke="#51cfbd" /><path d="m617 1168 164 81 61-188z" fill="#4dc4b3" stroke="#4dc4b3" /><path d="m467 1146 314 103-164-81z" fill="#4ec6b4" stroke="#4ec6b4" /><path d="m1463 534 66-135-241-95z" fill="#4fcbb9" stroke="#4fcbb9" /><path d="m1239 119 18-284-176 111z" fill="#58dfcc" stroke="#58dfcc" /><path d="m1632 548-103-149-66 135z" fill="#4dc7b5" stroke="#4dc7b5" /><path d="m899-145-101-153-180 248z" fill="#4fcbb9" stroke="#4fcbb9" /><path d="m966-347-168 49 101 153z" fill="#4fcab8" stroke="#4fcab8" /><path d="m166 199-195 162 263 9z" fill="#55d7c4" stroke="#55d7c4" /><path d="m-92 86 63 275 195-162z" fill="#55d7c5" stroke="#55d7c5" /><path d="m781 1249 207 3-146-191z" fill="#4ec7b6" stroke="#4ec7b6" /><path d="m1327 946 155-101-296 2z" fill="#56ddcb" stroke="#56ddcb" /><path d="m1406 1033 76-188-155 101z" fill="#54d8c6" stroke="#54d8c6" /><path d="m1081-54-115-293-67 202z" fill="#52d1be" stroke="#52d1be" /><path d="m1444-20-187-145-18 284z" fill="#58e0cd" stroke="#58e0cd" /><path d="m163-334-42 309 218-26z" fill="#58dfcc" stroke="#58dfcc" /><path d="m339-51-218 26 224 148z" fill="#5ae4d0" stroke="#5ae4d0" /><path d="m601-247-212-8 229 205z" fill="#52cfbd" stroke="#52cfbd" /><path d="m798-298-409 43 212 8z" fill="#4fc9b7" stroke="#4fc9b7" /><path d="m-109 770 312-167-191-87z" fill="#53d3c1" stroke="#53d3c1" /><path d="m-109 770 253 258 96-278z" fill="#58dfcb" stroke="#58dfcb" /><path d="m1529 399-56-344-185 249z" fill="#53d2c0" stroke="#53d2c0" /><path d="m1473 55-29-75-205 139z" fill="#57decb" stroke="#57decb" /><path d="m1241 1258 165-225-79-87z" fill="#53d6c3" stroke="#53d6c3" /><path d="m798-298-635-36 226 79z" fill="#51cdbb" stroke="#51cdbb" /><path d="m1257-165-291-182 115 293z" fill="#53d4c2" stroke="#53d4c2" /><path d="m1529 399 108-38-164-306z" fill="#51cebb" stroke="#51cebb" /><path d="m1482 845 150-297-169-14z" fill="#51cdbc" stroke="#51cdbc" /><path d="m1673 809-41-261-150 297z" fill="#51cfbd" stroke="#51cfbd" /><path d="m1632 548 5-187-108 38z" fill="#4dc4b2" stroke="#4dc4b2" /><path d="m1473 55 155-107-184 32z" fill="#56dac7" stroke="#56dac7" /><path d="m781 1249 460 9-253-6z" fill="#4ec8b7" stroke="#4ec8b7" /><path d="m988 1252 253 6-192-331z" fill="#51d0be" stroke="#51d0be" /><path d="m-185 596 76 174 121-254z" fill="#51cebc" stroke="#51cebc" /><path d="m-29 361-156 235 197-80z" fill="#4fcab8" stroke="#4fcab8" /><path d="m121-25-213 111 258 113z" fill="#59e0cc" stroke="#59e0cc" /><path d="m-8-140-84 226 213-111z" fill="#58dfcb" stroke="#58dfcb" /><path d="m-323 380 138 216 156-235z" fill="#4dc4b2" stroke="#4dc4b2" /><path d="m1680 1009-198-164-76 188z" fill="#53d4c2" stroke="#53d4c2" /><path d="m1680 1009-7-200-191 36z" fill="#53d4c2" stroke="#53d4c2" /><path d="m1632 548 41 261-36-448z" fill="#4ec7b5" stroke="#4ec7b5" /><path d="m-94 1135 66-85-288-79z" fill="#52d0be" stroke="#52d0be" /><path d="m-109 770 81 280 172-22z" fill="#56dac8" stroke="#56dac8" /><path d="m144 1028-1 220 324-102z" fill="#54d6c4" stroke="#54d6c4" /><path d="m467 1146-324 102 638 1z" fill="#4fcbb9" stroke="#4fcbb9" /><path d="m1673 809-3-699-33 251z" fill="#4cc2b1" stroke="#4cc2b1" /><path d="m1637 361 33-251-197-55z" fill="#52d1bf" stroke="#52d1bf" /><path d="m1427-288-92-65-78 188z" fill="#53d3c0" stroke="#53d3c0" /><path d="m-28 1050 171 198 1-220z" fill="#54d6c4" stroke="#54d6c4" /><path d="m781 1249-638-1 1098 10z" fill="#4bbfae" stroke="#4bbfae" /><path d="m163-334-171 194 129 115z" fill="#56dbc8" stroke="#56dbc8" /><path d="m1241 1258 185-26-20-199z" fill="#51d1bf" stroke="#51d1bf" /><path d="m-92 86-109 112 172 163z" fill="#53d2c0" stroke="#53d2c0" /><path d="m-222-101 21 299 109-112z" fill="#55d8c5" stroke="#55d8c5" /><path d="m966-347-803 13 635 36z" fill="#4ec4b3" stroke="#4ec4b3" /><path d="m389-255-226-79 176 283z" fill="#55d8c4" stroke="#55d8c4" /><path d="m1427-288-170 123 187 145z" fill="#55d7c5" stroke="#55d7c5" /><path d="m1257-165 78-188-369 6z" fill="#52d2bf" stroke="#52d2bf" /><path d="m966-347 369-6-1172 19z" fill="#4dc3b2" stroke="#4dc3b2" /><path d="m1621-228-194-60 17 268z" fill="#53d2c0" stroke="#53d2c0" /><path d="m1670 110-42-162-155 107z" fill="#55d8c5" stroke="#55d8c5" /><path d="m1625 1184 55-175-274 24z" fill="#50cebc" stroke="#50cebc" /><path d="m1673 809 7 200-10-899z" fill="#4ec8b7" stroke="#4ec8b7" /><path d="m-28 1050-66 85 237 113z" fill="#52d2c0" stroke="#52d2c0" /><path d="m-316 971 288 79-81-280z" fill="#53d4c2" stroke="#53d4c2" /><path d="m-201 198-122 182 294-19z" fill="#50cab9" stroke="#50cab9" /><path d="m-185 596-129 108 205 66z" fill="#50ccba" stroke="#50ccba" /><path d="m-222-101-101 481 122-182z" fill="#52d0bd" stroke="#52d0bd" /><path d="m-323 380 9 324 129-108z" fill="#4dc5b3" stroke="#4dc5b3" /><path d="m-8-140-214 39 130 187z" fill="#55d9c6" stroke="#55d9c6" /><path d="m163-334-176 20 5 174z" fill="#54d4c2" stroke="#54d4c2" /><path d="m1670 110-49-338 7 176z" fill="#53d3c1" stroke="#53d3c1" /><path d="m1628-52-7-176-177 208z" fill="#53d4c1" stroke="#53d4c1" /><path d="m1427-288 194 60-286-125z" fill="#51cebc" stroke="#51cebc" /><path d="m1426 1232 199-48-219-151z" fill="#50cdbb" stroke="#50cdbb" /><path d="m-221-298-1 197 214-39z" fill="#52d0be" stroke="#52d0be" /><path d="m-314 704-2 267 207-201z" fill="#51d0be" stroke="#51d0be" /><path d="m-323 380 7 591 2-267z" fill="#4ec8b6" stroke="#4ec8b6" /><path d="m-316 971 47 190 175-26z" fill="#4fcbb9" stroke="#4fcbb9" /><path d="m-94 1135-175 26 412 87z" fill="#50cebb" stroke="#50cebb" /><path d="m163-334-384 36 208-16z" fill="#51cfbd" stroke="#51cfbd" /><path d="m-13-314-208 16 213 158z" fill="#52d0bd" stroke="#52d0bd" /><path d="m-222-101 1-197-102 678z" fill="#54d5c3" stroke="#54d5c3" /></g></svg>
